<?xml version="1.0" standalone="no"?>
<!DOCTYPE svg PUBLIC "-//W3C//DTD SVG 20010904//EN"
 "http://www.w3.org/TR/2001/REC-SVG-20010904/DTD/svg10.dtd">
<svg version="1.0" xmlns="http://www.w3.org/2000/svg"
 width="651.000000pt" height="651.000000pt" viewBox="0 0 651.000000 651.000000"
 preserveAspectRatio="xMidYMid meet">
<metadata>
Created by potrace 1.14, written by Peter Selinger 2001-2017
</metadata>
<g transform="translate(0.000000,651.000000) scale(0.100000,-0.100000)"
fill="#000000" stroke="none">
<path d="M3179 6325 c-80 -16 -127 -43 -190 -105 -56 -56 -120 -163 -133 -225
-3 -16 -9 -41 -12 -55 -22 -106 -5 -263 50 -438 91 -290 103 -401 100 -892 -2
-344 -7 -472 -18 -525 -27 -132 -73 -202 -231 -357 -81 -80 -114 -105 -196
-151 -70 -39 -162 -111 -238 -187 -209 -205 -352 -499 -401 -825 -17 -112 -23
-419 -10 -463 36 -110 176 -164 270 -103 73 47 88 96 89 281 0 69 3 145 6 170
3 25 7 59 9 75 12 96 59 240 112 348 106 212 267 366 474 450 199 81 449 95
660 36 333 -92 581 -362 668 -729 36 -150 39 -208 43 -715 2 -332 10 -368 133
-611 47 -94 86 -183 86 -196 0 -29 -18 -47 -52 -53 -110 -18 -269 -37 -428
-50 -41 -4 -93 -8 -115 -10 -209 -20 -753 -26 -1025 -12 -219 11 -283 16 -425
32 -22 3 -60 7 -85 9 -116 13 -227 29 -248 37 -12 5 -27 19 -33 33 -10 21 -3
40 51 147 34 68 67 130 73 137 11 13 31 13 152 -2 201 -26 512 -45 800 -51
145 -3 195 6 242 41 52 39 70 90 64 179 -2 37 -53 102 -95 123 -36 18 -68 21
-286 27 -135 3 -261 7 -280 9 -19 2 -80 7 -135 11 -55 4 -113 8 -130 10 -16 2
-59 7 -95 11 -36 4 -76 8 -90 10 -14 2 -50 6 -80 10 -30 3 -58 8 -61 10 -4 2
-38 7 -77 10 -94 9 -149 -15 -192 -82 -16 -26 -30 -56 -30 -65 0 -10 -16 -48
-36 -86 -143 -266 -166 -327 -165 -426 1 -84 7 -112 41 -184 37 -79 104 -152
178 -191 70 -38 133 -53 277 -67 28 -3 57 -7 65 -9 8 -3 51 -8 94 -11 43 -4
86 -8 95 -10 9 -1 66 -6 126 -10 61 -4 121 -9 135 -10 14 -2 48 -3 76 -4 l50
-1 1 -49 c6 -232 218 -428 450 -417 155 8 280 82 358 212 40 66 55 114 62 194
2 30 5 55 6 56 1 1 54 5 117 9 63 3 126 8 140 10 14 2 65 7 114 10 49 4 96 8
105 10 9 1 50 6 91 10 41 4 77 8 80 10 3 1 32 6 65 9 33 4 68 9 77 12 9 3 27
7 39 9 82 16 203 111 252 199 60 107 70 254 27 362 -24 59 -135 279 -151 300
-4 5 -16 37 -24 70 -14 48 -17 123 -20 404 -1 190 -6 381 -9 425 -34 382 -192
723 -446 958 -73 68 -227 177 -249 177 -6 0 -11 5 -11 10 0 6 -6 10 -14 10 -7
0 -63 48 -123 108 -247 241 -254 264 -254 932 0 295 3 396 16 470 2 14 7 45
10 70 10 70 32 159 71 282 50 159 62 228 62 339 0 116 -17 189 -65 281 -87
167 -247 255 -404 223z"/>
<path d="M1784 3819 c-52 -19 -207 -244 -299 -434 -97 -200 -184 -474 -210
-665 -3 -25 -8 -56 -10 -70 -11 -75 -16 -160 -11 -178 4 -11 20 -25 36 -32 25
-10 34 -10 55 4 27 18 31 31 39 123 32 385 199 810 440 1117 50 64 54 80 31
113 -17 25 -43 33 -71 22z"/>
<path d="M4670 3822 c-28 -9 -50 -35 -50 -60 0 -15 23 -55 59 -101 193 -250
322 -540 390 -876 20 -99 23 -118 36 -247 4 -37 12 -74 19 -82 19 -26 60 -29
86 -8 22 18 24 27 22 82 -1 35 -4 75 -6 89 -3 14 -7 46 -11 71 -47 327 -176
674 -346 927 -112 167 -161 217 -199 205z"/>
<path d="M1994 3600 c-44 -17 -173 -209 -262 -387 -37 -73 -115 -282 -126
-337 -3 -11 -14 -61 -25 -111 -35 -161 -47 -274 -32 -303 15 -29 67 -39 91
-17 20 18 25 36 35 120 40 334 160 632 362 897 48 62 54 97 23 128 -22 22 -33
23 -66 10z"/>
<path d="M4425 3589 c-37 -30 -29 -60 41 -151 159 -205 280 -491 328 -768 3
-19 8 -44 10 -55 2 -11 7 -49 11 -85 7 -71 16 -85 57 -95 38 -10 81 33 73 72
-2 15 -7 59 -11 98 -4 38 -8 73 -10 76 -2 4 -6 24 -10 45 -22 142 -98 363
-177 519 -58 115 -80 151 -156 255 -85 118 -105 129 -156 89z"/>
</g>
</svg>
